
Open SVG
Paste markup
Demo
Contribute
About
Powered by the incredible SVGO


1.19k → 1.11k 93.28%
<svg id="Layer_1" data-name="Layer 1" xmlns="http://www.w3.org/2000/svg" viewBox="0 0 472.81 472.54">
  <defs>
    <style>
      .cls-1{font-size:198.11px;font-family:Lobster-Regular,Lobster;letter-spacing:.04em;fill:#010101}.cls-4{fill:#010101;font-size:21.36px;font-family:Roboto-Light,Roboto;font-weight:300}
    </style>
  </defs>
  <text class="cls-1" transform="translate(122.07 262.55)">
    B
  </text>
  <text class="cls-1" transform="translate(228.11 362.33)">
    G
  </text>
  <path fill="#231f20" d="M192.56 391.05l87.3-274.83h-2.08l-87.3 274.83h2.08z"/>
  <path d="M241.78 17.99c123.45 0 223.52 100.08 223.52 223.57S365.23 465.04 241.78 465.04a222.81 222.81 0 01-155.8-63.25" fill="none" stroke="#231f20" stroke-miterlimit="10" stroke-width="15"/>
  <text class="cls-4" transform="rotate(-130.86 128.228 178.72)">
    B
  </text>
  <text class="cls-4" transform="rotate(-127.5 128.295 174.368)">
    E
  </text>
  <text class="cls-4" transform="rotate(-123.87 129.383 170.045)">
    N
  </text>
  <text class="cls-4" transform="rotate(-118.42 129.789 162.618)">
    G
  </text>
  <text class="cls-4" transform="rotate(-114.66 129.96 157.146)">
    R
  </text>
  <text class="cls-4" transform="rotate(-111.12 130.213 151.82)">
    Z
  </text>
  <text class="cls-4" transform="rotate(-107.68 130.665 146.55)">
    Y
  </text>
  <text class="cls-4" transform="rotate(-104.5 130.664 140.877)">
    B
  </text>
  <text class="cls-4" transform="rotate(-100.5 132.107 135.104)">
    O
  </text>
  <text class="cls-4" transform="rotate(-96.07 133.897 128.234)">
    W
  </text>
  <text class="cls-4" transform="rotate(-91.89 132.836 118.682)">
    S
  </text>
  <text class="cls-4" transform="rotate(-88.47 133.447 111.754)">
    K
  </text>
  <text class="cls-4" transform="rotate(-85.89 131.854 104.031)">
    I
  </text>
  <text class="cls-4" transform="rotate(-82.71 132.49 96.76)">
    -
  </text>
  <text class="cls-4" transform="rotate(-77.81 136.7 88.551)">
    W
  </text>
  <text class="cls-4" transform="rotate(-73.7 135.645 75.098)">
    E
  </text>
  <text class="cls-4" transform="rotate(-70.1 137.221 65.336)">
    B
  </text>
  <text class="cls-4" transform="rotate(-65.09 138.523 48.71)">
    D
  </text>
  <text class="cls-4" transform="rotate(-61.59 139.091 34.966)">
    E
  </text>
  <text class="cls-4" transform="rotate(-58.2 140.429 21.437)">
    V
  </text>
  <text class="cls-4" transform="rotate(-54.82 141.355 5.437)">
    E
  </text>
  <text class="cls-4" transform="matrix(.62 -.78 .78 .62 62.84 107.44)">
    L
  </text>
  <text class="cls-4" transform="rotate(-48.43 144.56 -28.15)">
    O
  </text>
  <text class="cls-4" transform="rotate(-44.78 146.007 -52.984)">
    P
  </text>
  <text class="cls-4" transform="rotate(-41.4 148.031 -79.443)">
    E
  </text>
  <text class="cls-4" transform="matrix(.79 -.62 .62 .79 98.97 69.43)">
    R
  </text>
  <text class="cls-4" transform="rotate(-32.9 155.63 -166.628)">
    &
  </text>
  <text class="cls-4" transform="rotate(-27.82 160.527 -241.884)">
    D
  </text>
  <text class="cls-4" transform="rotate(-24.31 165.527 -314.917)">
    E
  </text>
  <text class="cls-4" transform="matrix(.93 -.36 .36 .93 155.91 34.99)">
    S
  </text>
  <text class="cls-4" transform="rotate(-18.44 177.595 -503.37)">
    I
  </text>
  <text class="cls-4" transform="rotate(-15.67 189.784 -619.099)">
    G
  </text>
  <text class="cls-4" transform="rotate(-11.69 212.462 -910.16)">
    N
  </text>
  <text class="cls-4" transform="rotate(-8.1 253.325 -1440.548)">
    E
  </text>
  <text class="cls-4" transform="matrix(1 -.08 .08 1 216.81 19.27)">
    R
  </text>
</svg>