<svg id="Layer_1" data-name="Layer 1" xmlns="http://www.w3.org/2000/svg" viewBox="0 0 472.5 471.62">
  <defs>
    <style>
      .cls-1-1{font-size:198.11px;font-family:Lobster-Regular,Lobster;letter-spacing:.04em;fill:#fff}
      .cls-4-1{fill:#fff;font-size:21px;font-family:Roboto-Light,Roboto;font-weight:300}
    </style>
  </defs>
  <text class="cls-1-1" transform="translate(121.77 261.63)">
    B
  </text>
  <text class="cls-1-1" transform="translate(227.8 361.41)">
    G
  </text>
  <path fill="#fff" d="M192.25 390.13l87.3-274.83h-2.08l-87.29 274.83h2.07z"/>
  <path d="M241.48 17.07C364.93 17.07 465 117.15 465 240.64S364.93 464.12 241.48 464.12a222.81 222.81 0 01-155.8-63.25" fill="none" stroke="#fff" stroke-miterlimit="10" stroke-width="15"/>
  <text class="cls-4-1" transform="rotate(-130.89 127.81 178.35)">
    B
  </text>
  <text class="cls-4-1" transform="rotate(-127.59 127.839 174.068)">
    E
  </text>
  <text class="cls-4-1" transform="rotate(-124.02 128.889 169.827)">
    N
  </text>
  <text class="cls-4-1" transform="rotate(-121.31 126.694 164.85)">
    
  </text>
  <text class="cls-4-1" transform="rotate(-118.7 129.34 162.243)">
    G
  </text>
  <text class="cls-4-1" transform="rotate(-114.96 129.43 157.188)">
    R
  </text>
  <text class="cls-4-1" transform="rotate(-111.48 129.652 151.973)">
    Z
  </text>
  <text class="cls-4-1" transform="rotate(-108.1 130.074 146.82)">
    Y
  </text>
  <text class="cls-4-1" transform="rotate(-104.67 130.602 141.428)">
    B
  </text>
  <text class="cls-4-1" transform="rotate(-101.05 131.416 135.66)">
    O
  </text>
  <text class="cls-4-1" transform="rotate(-96.68 133.164 128.95)">
    W
  </text>
  <text class="cls-4-1" transform="rotate(-92.57 132.092 119.675)">
    S
  </text>
  <text class="cls-4-1" transform="rotate(-89.07 132.952 112.939)">
    K
  </text>
  <text class="cls-4-1" transform="rotate(-86.6 131.28 105.223)">
    I
  </text>
  <text class="cls-4-1" transform="rotate(-85.14 131.175 101.878)">
    
  </text>
  <text class="cls-4-1" transform="rotate(-83.56 131.639 98.455)">
    -
  </text>
  <text class="cls-4-1" transform="rotate(-81.96 131.688 94.388)">
    
  </text>
  <text class="cls-4-1" transform="rotate(-78.74 135.714 90.537)">
    W
  </text>
  <text class="cls-4-1" transform="rotate(-74.65 134.81 77.56)">
    E
  </text>
  <text class="cls-4-1" transform="rotate(-71.3 135.805 68.215)">
    B
  </text>
  <text class="cls-4-1" transform="matrix(.36 -.93 .93 .36 32.06 162.25)">
    
  </text>
  <text class="cls-4-1" transform="rotate(-66.23 137.293 52.356)">
    D
  </text>
  <text class="cls-4-1" transform="rotate(-62.79 137.77 39.293)">
    E
  </text>
  <text class="cls-4-1" transform="rotate(-59.3 139.295 26.4)">
    V
  </text>
  <text class="cls-4-1" transform="rotate(-56.12 139.825 11.357)">
    E
  </text>
  <text class="cls-4-1" transform="rotate(-53 140.46 -4.07)">
    L
  </text>
  <text class="cls-4-1" transform="rotate(-49.84 142.722 -20.037)">
    O
  </text>
  <text class="cls-4-1" transform="rotate(-46.25 143.982 -43.072)">
    P
  </text>
  <text class="cls-4-1" transform="rotate(-42.94 145.408 -67.393)">
    E
  </text>
  <text class="cls-4-1" transform="rotate(-39.6 147.053 -94.06)">
    R
  </text>
  <text class="cls-4-1" transform="rotate(-37.08 147.364 -124.43)">
    
  </text>
  <text class="cls-4-1" transform="rotate(-34.62 151.23 -145.306)">
    &
  </text>
  <text class="cls-4-1" transform="rotate(-31.8 151.448 -184.515)">
    
  </text>
  <text class="cls-4-1" transform="rotate(-29.5 157.72 -213.87)">
    D
  </text>
  <text class="cls-4-1" transform="rotate(-26.15 160.281 -275.307)">
    E
  </text>
  <text class="cls-4-1" transform="rotate(-22.86 165.894 -349.953)">
    S
  </text>
  <text class="cls-4-1" transform="rotate(-20.38 169.44 -431.92)">
    I
  </text>
  <text class="cls-4-1" transform="matrix(.95 -.3 .3 .95 166.78 29.74)">
    G
  </text>
  <text class="cls-4-1" transform="rotate(-13.74 195.226 -738.363)">
    N
  </text>
  <text class="cls-4-1" transform="rotate(-10.14 219.886 -1093.616)">
    E
  </text>
  <text class="cls-4-1" transform="rotate(-6.76 268.542 -1753.477)">
    R
  </text>
</svg>